<?xml version="1.0" encoding="UTF-8" standalone="no"?>
<!DOCTYPE svg PUBLIC "-//W3C//DTD SVG 1.1//EN"
 "http://www.w3.org/Graphics/SVG/1.1/DTD/svg11.dtd">
<!-- Generated by graphviz version 2.26.3 (20100126.1600)
 -->
<!-- Title: Finite_Automata_Graph Pages: 1 -->
<svg width="237pt" height="1236pt"
 viewBox="0.00 0.00 237.00 1236.00" xmlns="http://www.w3.org/2000/svg" xmlns:xlink="http://www.w3.org/1999/xlink">
<g id="graph1" class="graph" transform="scale(1 1) rotate(0) translate(4 1232)">
<title>Finite_Automata_Graph</title>
<polygon fill="white" stroke="white" points="-4,5 -4,-1232 234,-1232 234,5 -4,5"/>
<!-- 0 -->
<g id="node1" class="node"><title>0</title>
<ellipse fill="none" stroke="#000000" cx="163" cy="-1210" rx="18" ry="18"/>
<text text-anchor="middle" x="163" y="-1205.4" font-family="Times Roman,serif" font-size="14.00">0</text>
</g>
<!-- 1 -->
<g id="node2" class="node"><title>1</title>
<ellipse fill="none" stroke="#000000" cx="163" cy="-1122" rx="18" ry="18"/>
<text text-anchor="middle" x="163" y="-1117.4" font-family="Times Roman,serif" font-size="14.00">1</text>
</g>
<!-- 0&#45;&gt;1 -->
<g id="edge2" class="edge"><title>0&#45;&gt;1</title>
<path fill="none" stroke="black" d="M163,-1191.77C163,-1179.85 163,-1164.04 163,-1150.48"/>
<polygon fill="black" stroke="black" points="166.5,-1150.21 163,-1140.21 159.5,-1150.21 166.5,-1150.21"/>
<text text-anchor="middle" x="167" y="-1161.4" font-family="Times Roman,serif" font-size="14.00">ε</text>
</g>
<!-- 2 -->
<g id="node3" class="node"><title>2</title>
<ellipse fill="none" stroke="#000000" cx="116" cy="-506" rx="18" ry="18"/>
<text text-anchor="middle" x="116" y="-501.4" font-family="Times Roman,serif" font-size="14.00">2</text>
</g>
<!-- 1&#45;&gt;2 -->
<g id="edge6" class="edge"><title>1&#45;&gt;2</title>
<path fill="none" stroke="black" d="M144.957,-1120.49C103.113,-1115.89 3,-1098.2 3,-1034 3,-1034 3,-1034 3,-594 3,-550.735 55.2032,-525.629 88.6459,-513.985"/>
<polygon fill="black" stroke="black" points="89.9361,-517.245 98.3438,-510.799 87.7509,-510.595 89.9361,-517.245"/>
<text text-anchor="middle" x="7" y="-809.4" font-family="Times Roman,serif" font-size="14.00">ε</text>
</g>
<!-- 4 -->
<g id="node5" class="node"><title>4</title>
<ellipse fill="none" stroke="#000000" cx="163" cy="-1034" rx="18" ry="18"/>
<text text-anchor="middle" x="163" y="-1029.4" font-family="Times Roman,serif" font-size="14.00">4</text>
</g>
<!-- 1&#45;&gt;4 -->
<g id="edge4" class="edge"><title>1&#45;&gt;4</title>
<path fill="none" stroke="black" d="M163,-1103.77C163,-1091.85 163,-1076.04 163,-1062.48"/>
<polygon fill="black" stroke="black" points="166.5,-1062.21 163,-1052.21 159.5,-1062.21 166.5,-1062.21"/>
<text text-anchor="middle" x="167" y="-1073.4" font-family="Times Roman,serif" font-size="14.00">ε</text>
</g>
<!-- 2&#45;&gt;1 -->
<g id="edge8" class="edge"><title>2&#45;&gt;1</title>
<path fill="none" stroke="black" d="M133.339,-511.52C163.162,-522.224 221,-548.809 221,-594 221,-1034 221,-1034 221,-1034 221,-1061.36 201.212,-1086.78 184.752,-1103.19"/>
<polygon fill="black" stroke="black" points="181.895,-1101.08 177.04,-1110.5 186.708,-1106.16 181.895,-1101.08"/>
<text text-anchor="middle" x="225" y="-809.4" font-family="Times Roman,serif" font-size="14.00">ε</text>
</g>
<!-- 3 -->
<g id="node4" class="node"><title>3</title>
<ellipse fill="none" stroke="#000000" cx="116" cy="-418" rx="18" ry="18"/>
<text text-anchor="middle" x="116" y="-413.4" font-family="Times Roman,serif" font-size="14.00">3</text>
</g>
<!-- 2&#45;&gt;3 -->
<g id="edge10" class="edge"><title>2&#45;&gt;3</title>
<path fill="none" stroke="black" d="M116,-487.766C116,-475.849 116,-460.038 116,-446.482"/>
<polygon fill="black" stroke="black" points="119.5,-446.21 116,-436.21 112.5,-446.21 119.5,-446.21"/>
<text text-anchor="middle" x="120" y="-457.4" font-family="Times Roman,serif" font-size="14.00">ε</text>
</g>
<!-- 10 -->
<g id="node11" class="node"><title>10</title>
<ellipse fill="none" stroke="#000000" cx="78" cy="-325" rx="22.8079" ry="22.8079"/>
<text text-anchor="middle" x="78" y="-320.4" font-family="Times Roman,serif" font-size="14.00">10</text>
</g>
<!-- 3&#45;&gt;10 -->
<g id="edge30" class="edge"><title>3&#45;&gt;10</title>
<path fill="none" stroke="black" d="M109.03,-400.942C103.898,-388.382 96.7762,-370.952 90.6498,-355.959"/>
<polygon fill="black" stroke="black" points="93.821,-354.466 86.7985,-346.533 87.3411,-357.114 93.821,-354.466"/>
<text text-anchor="middle" x="105" y="-369.4" font-family="Times Roman,serif" font-size="14.00">ε</text>
</g>
<!-- 12 -->
<g id="node13" class="node"><title>12</title>
<ellipse fill="none" stroke="#000000" cx="110" cy="-27" rx="22.8079" ry="22.8079"/>
<ellipse fill="none" stroke="#000000" cx="110" cy="-27" rx="26.8079" ry="26.8079"/>
<text text-anchor="middle" x="110" y="-22.4" font-family="Times Roman,serif" font-size="14.00">12</text>
</g>
<!-- 3&#45;&gt;12 -->
<g id="edge32" class="edge"><title>3&#45;&gt;12</title>
<path fill="none" stroke="black" d="M119.971,-400.274C123.794,-381.637 129,-351.411 129,-325 129,-325 129,-325 129,-129 129,-106.86 124.62,-82.4676 120.066,-63.0888"/>
<polygon fill="black" stroke="black" points="123.412,-62.0387 117.619,-53.1683 116.616,-63.7156 123.412,-62.0387"/>
<text text-anchor="middle" x="133" y="-222.4" font-family="Times Roman,serif" font-size="14.00">ε</text>
</g>
<!-- 6 -->
<g id="node7" class="node"><title>6</title>
<ellipse fill="none" stroke="#000000" cx="107" cy="-946" rx="18" ry="18"/>
<text text-anchor="middle" x="107" y="-941.4" font-family="Times Roman,serif" font-size="14.00">6</text>
</g>
<!-- 4&#45;&gt;6 -->
<g id="edge12" class="edge"><title>4&#45;&gt;6</title>
<path fill="none" stroke="black" d="M153.246,-1018.67C144.706,-1005.25 132.155,-985.53 122.283,-970.016"/>
<polygon fill="black" stroke="black" points="125.152,-968.006 116.831,-961.448 119.247,-971.764 125.152,-968.006"/>
<text text-anchor="middle" x="144.5" y="-985.4" font-family="Times Roman,serif" font-size="14.00">a</text>
</g>
<!-- 5 -->
<g id="node6" class="node"><title>5</title>
<ellipse fill="none" stroke="#000000" cx="116" cy="-594" rx="18" ry="18"/>
<text text-anchor="middle" x="116" y="-589.4" font-family="Times Roman,serif" font-size="14.00">5</text>
</g>
<!-- 5&#45;&gt;2 -->
<g id="edge16" class="edge"><title>5&#45;&gt;2</title>
<path fill="none" stroke="black" d="M116,-575.766C116,-563.849 116,-548.038 116,-534.482"/>
<polygon fill="black" stroke="black" points="119.5,-534.21 116,-524.21 112.5,-534.21 119.5,-534.21"/>
<text text-anchor="middle" x="120" y="-545.4" font-family="Times Roman,serif" font-size="14.00">ε</text>
</g>
<!-- 5&#45;&gt;4 -->
<g id="edge14" class="edge"><title>5&#45;&gt;4</title>
<path fill="none" stroke="black" d="M131.203,-604.259C150.971,-618.956 183,-648.013 183,-682 183,-946 183,-946 183,-946 183,-966.889 177.575,-989.889 172.376,-1007.14"/>
<polygon fill="black" stroke="black" points="168.915,-1006.47 169.218,-1017.06 175.586,-1008.59 168.915,-1006.47"/>
<text text-anchor="middle" x="187" y="-809.4" font-family="Times Roman,serif" font-size="14.00">ε</text>
</g>
<!-- 6&#45;&gt;5 -->
<g id="edge18" class="edge"><title>6&#45;&gt;5</title>
<path fill="none" stroke="black" d="M92.9598,-934.497C75.7946,-919.05 49,-889.838 49,-858 49,-858 49,-858 49,-682 49,-652.261 73.5221,-626.297 92.8955,-610.425"/>
<polygon fill="black" stroke="black" points="95.0665,-613.17 100.797,-604.259 90.7598,-607.652 95.0665,-613.17"/>
<text text-anchor="middle" x="53" y="-765.4" font-family="Times Roman,serif" font-size="14.00">ε</text>
</g>
<!-- 7 -->
<g id="node8" class="node"><title>7</title>
<ellipse fill="none" stroke="#000000" cx="107" cy="-858" rx="18" ry="18"/>
<text text-anchor="middle" x="107" y="-853.4" font-family="Times Roman,serif" font-size="14.00">7</text>
</g>
<!-- 6&#45;&gt;7 -->
<g id="edge20" class="edge"><title>6&#45;&gt;7</title>
<path fill="none" stroke="black" d="M107,-927.766C107,-915.849 107,-900.038 107,-886.482"/>
<polygon fill="black" stroke="black" points="110.5,-886.21 107,-876.21 103.5,-886.21 110.5,-886.21"/>
<text text-anchor="middle" x="111" y="-897.4" font-family="Times Roman,serif" font-size="14.00">ε</text>
</g>
<!-- 9 -->
<g id="node10" class="node"><title>9</title>
<ellipse fill="none" stroke="#000000" cx="93" cy="-770" rx="18" ry="18"/>
<text text-anchor="middle" x="93" y="-765.4" font-family="Times Roman,serif" font-size="14.00">9</text>
</g>
<!-- 7&#45;&gt;9 -->
<g id="edge22" class="edge"><title>7&#45;&gt;9</title>
<path fill="none" stroke="black" d="M104.167,-840.192C102.231,-828.026 99.6275,-811.658 97.4211,-797.789"/>
<polygon fill="black" stroke="black" points="100.857,-797.108 95.8289,-787.782 93.9436,-798.207 100.857,-797.108"/>
<text text-anchor="middle" x="106.5" y="-809.4" font-family="Times Roman,serif" font-size="14.00">a</text>
</g>
<!-- 8 -->
<g id="node9" class="node"><title>8</title>
<ellipse fill="none" stroke="#000000" cx="116" cy="-682" rx="18" ry="18"/>
<text text-anchor="middle" x="116" y="-677.4" font-family="Times Roman,serif" font-size="14.00">8</text>
</g>
<!-- 8&#45;&gt;5 -->
<g id="edge24" class="edge"><title>8&#45;&gt;5</title>
<path fill="none" stroke="black" d="M116,-663.766C116,-651.849 116,-636.038 116,-622.482"/>
<polygon fill="black" stroke="black" points="119.5,-622.21 116,-612.21 112.5,-622.21 119.5,-622.21"/>
<text text-anchor="middle" x="120" y="-633.4" font-family="Times Roman,serif" font-size="14.00">ε</text>
</g>
<!-- 8&#45;&gt;7 -->
<g id="edge26" class="edge"><title>8&#45;&gt;7</title>
<path fill="none" stroke="black" d="M118.981,-699.894C119.808,-705.657 120.591,-712.083 121,-718 124.192,-764.189 123.395,-776.468 115,-822 114.495,-824.739 113.931,-827.586 113.342,-830.427"/>
<polygon fill="black" stroke="black" points="109.862,-829.959 111.163,-840.474 116.703,-831.443 109.862,-829.959"/>
<text text-anchor="middle" x="127" y="-765.4" font-family="Times Roman,serif" font-size="14.00">ε</text>
</g>
<!-- 9&#45;&gt;8 -->
<g id="edge28" class="edge"><title>9&#45;&gt;8</title>
<path fill="none" stroke="black" d="M97.6544,-752.192C100.855,-739.945 105.168,-723.443 108.808,-709.516"/>
<polygon fill="black" stroke="black" points="112.289,-710.041 111.431,-699.481 105.516,-708.271 112.289,-710.041"/>
<text text-anchor="middle" x="112" y="-721.4" font-family="Times Roman,serif" font-size="14.00">b</text>
</g>
<!-- 13 -->
<g id="node14" class="node"><title>13</title>
<ellipse fill="none" stroke="#000000" cx="23" cy="-227" rx="22.8079" ry="22.8079"/>
<text text-anchor="middle" x="23" y="-222.4" font-family="Times Roman,serif" font-size="14.00">13</text>
</g>
<!-- 10&#45;&gt;13 -->
<g id="edge34" class="edge"><title>10&#45;&gt;13</title>
<path fill="none" stroke="black" d="M66.604,-304.694C58.7133,-290.635 48.0913,-271.708 39.3068,-256.056"/>
<polygon fill="black" stroke="black" points="42.3278,-254.287 34.3814,-247.28 36.2235,-257.713 42.3278,-254.287"/>
<text text-anchor="middle" x="59" y="-271.4" font-family="Times Roman,serif" font-size="14.00">b</text>
</g>
<!-- 11 -->
<g id="node12" class="node"><title>11</title>
<ellipse fill="none" stroke="#000000" cx="78" cy="-129" rx="22.8079" ry="22.8079"/>
<text text-anchor="middle" x="78" y="-124.4" font-family="Times Roman,serif" font-size="14.00">11</text>
</g>
<!-- 11&#45;&gt;10 -->
<g id="edge36" class="edge"><title>11&#45;&gt;10</title>
<path fill="none" stroke="black" d="M78,-152.223C78,-186.759 78,-251.835 78,-291.516"/>
<polygon fill="black" stroke="black" points="74.5001,-291.747 78,-301.747 81.5001,-291.747 74.5001,-291.747"/>
<text text-anchor="middle" x="82" y="-222.4" font-family="Times Roman,serif" font-size="14.00">ε</text>
</g>
<!-- 11&#45;&gt;12 -->
<g id="edge38" class="edge"><title>11&#45;&gt;12</title>
<path fill="none" stroke="black" d="M84.9435,-106.868C88.976,-94.0139 94.1529,-77.5126 98.7532,-62.8492"/>
<polygon fill="black" stroke="black" points="102.171,-63.6478 101.825,-53.0586 95.4918,-61.5524 102.171,-63.6478"/>
<text text-anchor="middle" x="99" y="-75.4" font-family="Times Roman,serif" font-size="14.00">ε</text>
</g>
<!-- 13&#45;&gt;11 -->
<g id="edge40" class="edge"><title>13&#45;&gt;11</title>
<path fill="none" stroke="black" d="M34.396,-206.694C42.2867,-192.635 52.9087,-173.708 61.6932,-158.056"/>
<polygon fill="black" stroke="black" points="64.7765,-159.713 66.6186,-149.28 58.6722,-156.287 64.7765,-159.713"/>
<text text-anchor="middle" x="58.5" y="-173.4" font-family="Times Roman,serif" font-size="14.00">a</text>
</g>
</g>
</svg>
